<svg width="64" height="64" viewBox="0 0 64 64" fill="none" xmlns="http://www.w3.org/2000/svg">
<g>
<path d="M26.336 13.3035C25.8709 12.0107 25.4016 10.7072 25.393 10.6901C25.169 10.1888 24.6506 9.87307 24.1045 9.92854C23.7589 9.95627 15.5818 10.6603 10.3424 14.8736C7.60317 17.4037 2.1333 32.1963 2.1333 44.9856C2.1333 45.2117 2.1909 45.4315 2.30397 45.6277C6.0821 52.2624 16.3818 53.9989 18.7285 54.0736C18.7434 54.0757 18.7562 54.0757 18.769 54.0757C19.1829 54.0757 19.5712 53.8773 19.8186 53.5424L22.3573 50.1035C18.1632 49.4656 17.4058 48.6336 17.2288 48.5035C16.2816 47.8059 15.5818 46.8288 16.4309 45.5957C17.0837 44.6379 18.4533 44.3221 19.5029 44.8619C20.5781 45.3632 23.456 46.976 32 46.9333C40.4842 46.9077 44.209 45.1307 44.2624 45.0923C45.6874 44.4501 46.7989 44.7147 47.4922 45.6661C48.3178 46.9611 47.729 47.8379 46.7861 48.5333C46.609 48.6635 46.1802 49.0283 41.6746 50.0949L44.1813 53.5403C44.4266 53.8773 44.817 54.0736 45.2309 54.0736C45.2458 54.0736 45.2586 54.0736 45.2714 54.0715C47.6202 53.9968 57.92 52.2603 61.696 45.6256C61.809 45.4293 61.8666 45.2096 61.8666 44.9835C61.8666 32.1963 56.3968 17.4037 53.5893 14.8181C48.4181 10.6624 40.241 9.9584 39.8954 9.92854C39.3493 9.8816 38.8309 10.1909 38.6069 10.6901C38.5984 10.7072 38.1418 12.032 37.7002 13.3099C37.7002 13.3099 34.2208 12.8 32 12.8C29.7792 12.8 26.336 13.3035 26.336 13.3035ZM23.4666 40.5333C21.1093 40.5333 19.2 37.6896 19.2 34.1781C19.2 30.6667 21.1093 27.8229 23.4666 27.8229C25.8325 27.4709 27.6821 30.6667 27.7333 34.1781C27.7333 37.6896 25.824 40.5333 23.4666 40.5333ZM40.5333 40.5333C38.176 40.5333 36.2666 37.6704 36.2666 34.1397C36.2666 30.6091 38.176 27.7461 40.5333 27.7461C42.8906 27.7461 44.8 30.6091 44.8 34.1397C44.8 37.6704 42.8906 40.5333 40.5333 40.5333Z" fill="white"/>
</g>
</svg>
