<svg width="90" height="90" viewBox="0 0 90 90" fill="none" xmlns="http://www.w3.org/2000/svg">
<path d="M45.4384 3.0004C44.5352 3.01412 43.6745 3.37536 43.0452 4.00483C42.416 4.63431 42.0695 5.4806 42.0818 6.35797V75.6485L30.8534 64.7412C30.5357 64.4239 30.1556 64.1717 29.7358 63.9995C29.3161 63.8273 28.865 63.7385 28.4093 63.7385C27.7309 63.7387 27.0681 63.9353 26.5054 64.3034C25.9428 64.6714 25.5059 65.1941 25.2506 65.8046C24.9954 66.4151 24.9334 67.0856 25.0725 67.7306C25.2116 68.3755 25.5456 68.9654 26.0317 69.425L42.7811 85.6953C43.0985 86.0998 43.5074 86.4279 43.9763 86.6542C44.4452 86.8804 44.9615 86.9987 45.485 87C46.0086 87.0012 46.5254 86.8854 46.9955 86.6614C47.4655 86.4374 47.8761 86.1112 48.1955 85.7082C48.2 85.7018 48.2044 85.6953 48.2089 85.6888L64.9516 69.425C65.2789 69.1198 65.5401 68.7542 65.7201 68.3497C65.9001 67.9452 65.9952 67.5098 65.9998 67.0692C66.0044 66.6285 65.9185 66.1913 65.747 65.7834C65.5755 65.3754 65.322 65.0047 65.0012 64.6931C64.6804 64.3815 64.2988 64.1352 63.8788 63.9686C63.4588 63.802 63.0088 63.7185 62.5551 63.723C62.1015 63.7275 61.6533 63.8199 61.2369 63.9947C60.8204 64.1695 60.4441 64.4233 60.1299 64.7412L48.9015 75.6485V6.35797C48.9077 5.91482 48.8224 5.47496 48.6505 5.06444C48.4785 4.65391 48.2236 4.28107 47.9007 3.96799C47.5777 3.65491 47.1934 3.40796 46.7705 3.24175C46.3475 3.07555 45.8946 2.99348 45.4384 3.0004Z" fill="white"/>
</svg>
