<svg width="64" height="64" viewBox="0 0 64 64" fill="none" xmlns="http://www.w3.org/2000/svg">
<g>
<path d="M21.3291 6.40002C13.0965 6.40002 6.3999 13.1029 6.3999 21.3375V42.6709C6.3999 50.9034 13.1027 57.6 21.3374 57.6H42.6707C50.9033 57.6 57.5999 50.8972 57.5999 42.6625V21.3292C57.5999 13.0967 50.8971 6.40002 42.6624 6.40002H21.3291ZM46.9332 14.9334C48.1108 14.9334 49.0666 15.8891 49.0666 17.0667C49.0666 18.2443 48.1108 19.2 46.9332 19.2C45.7556 19.2 44.7999 18.2443 44.7999 17.0667C44.7999 15.8891 45.7556 14.9334 46.9332 14.9334ZM31.9999 19.2C39.0591 19.2 44.7999 24.9408 44.7999 32C44.7999 39.0592 39.0591 44.8 31.9999 44.8C24.9407 44.8 19.1999 39.0592 19.1999 32C19.1999 24.9408 24.9407 19.2 31.9999 19.2ZM31.9999 23.4667C29.7367 23.4667 27.5662 24.3657 25.9659 25.966C24.3656 27.5664 23.4666 29.7368 23.4666 32C23.4666 34.2632 24.3656 36.4337 25.9659 38.034C27.5662 39.6343 29.7367 40.5334 31.9999 40.5334C34.2631 40.5334 36.4336 39.6343 38.0339 38.034C39.6342 36.4337 40.5332 34.2632 40.5332 32C40.5332 29.7368 39.6342 27.5664 38.0339 25.966C36.4336 24.3657 34.2631 23.4667 31.9999 23.4667Z" fill="white"/>
</g>
</svg>
