<svg width="64" height="64" viewBox="0 0 64 64" fill="none" xmlns="http://www.w3.org/2000/svg">
<g>
<path d="M37.6791 4.26672C33.2053 4.26672 29.8666 7.92142 29.8666 12.0792V19.2751C23.9993 19.5864 18.6335 21.1507 14.3499 23.6042C12.6992 22.0191 10.4889 21.3151 8.34578 21.3167C6.02218 21.3184 3.64678 22.1236 2.00828 23.9667L1.97078 24.0084L1.93328 24.0501C0.3615 26.0144 -0.260869 28.6459 0.158277 31.2584C0.541064 33.6442 1.92287 36.0393 4.32494 37.6084C4.30921 37.8732 4.26661 38.1326 4.26661 38.4001C4.26661 48.9857 16.7082 57.6001 31.9999 57.6001C47.2917 57.6001 59.7333 48.9857 59.7333 38.4001C59.7333 38.1326 59.6907 37.8732 59.6749 37.6084C62.077 36.0393 63.4588 33.6442 63.8416 31.2584C64.2607 28.6459 63.6384 26.0144 62.0666 24.0501L62.0291 24.0084L61.9916 23.9667C60.3529 22.1234 57.9779 21.3184 55.6541 21.3167C53.5108 21.3151 51.3002 22.0185 49.6499 23.6042C45.3664 21.1507 40.0006 19.5864 34.1333 19.2751V12.0792C34.1333 9.99063 35.3391 8.53339 37.6791 8.53339C38.7899 8.53339 40.1431 9.08999 42.2624 9.83339C44.054 10.4618 46.3857 11.097 49.3666 11.2876C50.0797 13.3954 52.0593 14.9334 54.3999 14.9334C57.3333 14.9334 59.7333 12.5334 59.7333 9.60006C59.7333 6.66672 57.3333 4.26672 54.3999 4.26672C52.3972 4.26672 50.6614 5.39829 49.7499 7.04172C47.2017 6.9006 45.3295 6.38877 43.6749 5.80839C41.7468 5.13206 39.9752 4.26672 37.6791 4.26672ZM8.34578 25.5834C9.18874 25.5828 9.98964 25.804 10.6499 26.1626C8.29476 28.1284 6.50783 30.4253 5.42911 32.9334C4.85634 32.2264 4.51119 31.4326 4.37494 30.5834C4.14504 29.1504 4.57386 27.661 5.25411 26.7792C5.89694 26.0873 7.07079 25.5843 8.34578 25.5834ZM55.6499 25.5834C56.9253 25.5843 58.1031 26.0875 58.7458 26.7792C59.426 27.661 59.8548 29.1504 59.6249 30.5834C59.4887 31.4326 59.1435 32.2264 58.5708 32.9334C57.4921 30.4253 55.7051 28.1284 53.3499 26.1626C54.0087 25.8044 54.8073 25.5828 55.6499 25.5834ZM21.3333 29.8667C23.6906 29.8667 25.5999 31.7761 25.5999 34.1334C25.5999 36.4907 23.6906 38.4001 21.3333 38.4001C18.9759 38.4001 17.0666 36.4907 17.0666 34.1334C17.0666 31.7761 18.9759 29.8667 21.3333 29.8667ZM42.6666 29.8667C45.0239 29.8667 46.9333 31.7761 46.9333 34.1334C46.9333 36.4907 45.0239 38.4001 42.6666 38.4001C40.3093 38.4001 38.3999 36.4907 38.3999 34.1334C38.3999 31.7761 40.3093 29.8667 42.6666 29.8667ZM43.1749 41.6709C41.8117 45.6538 37.4527 49.0667 31.9999 49.0667C26.5471 49.0667 22.1881 45.6555 20.8249 41.9584C23.2783 43.9488 27.3663 45.3709 31.9999 45.3709C36.6335 45.3709 40.7216 43.9472 43.1749 41.6709Z" fill="white"/>
</g>
</svg>
