<svg width="64" height="64" viewBox="0 0 64 64" fill="none" xmlns="http://www.w3.org/2000/svg">
<g>
<path d="M31.9999 8.53333C23.0698 8.53333 11.4791 10.7708 11.4791 10.7708L11.4499 10.8042C7.38268 11.4546 4.2666 14.9496 4.2666 19.2V32V32.0042V44.8V44.8042C4.27057 46.8341 4.99806 48.7961 6.31844 50.338C7.63882 51.8798 9.4656 52.9005 11.4708 53.2167L11.4791 53.2292C11.4791 53.2292 23.0698 55.4708 31.9999 55.4708C40.9301 55.4708 52.5208 53.2292 52.5208 53.2292L52.5249 53.225C54.5323 52.9095 56.3612 51.888 57.6826 50.3443C59.0039 48.8007 59.7311 46.8362 59.7333 44.8042V44.8V32.0042V32V19.2C59.7303 17.1693 59.0033 15.2063 57.6828 13.6636C56.3623 12.1209 54.535 11.0996 52.5291 10.7833L52.5208 10.7708C52.5208 10.7708 40.9301 8.53333 31.9999 8.53333ZM25.5999 22.1833L42.6666 32L25.5999 41.8167V22.1833Z" fill="white"/>
</g>
</svg>
