<svg width="64" height="64" viewBox="0 0 64 64" fill="none" xmlns="http://www.w3.org/2000/svg">
<g>
<path d="M53.2727 6H10.7273C8.11545 6 6 8.11545 6 10.7273V53.2727C6 55.8845 8.11545 58 10.7273 58H34.3636V36.7273H27.2727V29.6364H34.3636V25.8285C34.3636 18.6195 37.876 15.4545 43.8678 15.4545C46.7373 15.4545 48.2547 15.6673 48.9733 15.7642V22.5455H44.8865C42.3433 22.5455 41.4545 23.888 41.4545 26.6062V29.6364H48.9095L47.8978 36.7273H41.4545V58H53.2727C55.8845 58 58 55.8845 58 53.2727V10.7273C58 8.11545 55.8822 6 53.2727 6Z" fill="white"/>
</g>
</svg>
