<svg width="1152" height="142" viewBox="0 0 1152 142" fill="none" xmlns="http://www.w3.org/2000/svg">
    <g filter="url(#filter0_dd_148_203)">
        <path d="M1008.83 122L1036.72 45.2358H1000.11V45.0415C1000.11 44.6528 1001.08 43.0981 1002.82 40.766C1004.56 38.434 1006.69 35.9076 1009.02 32.9925C1011.34 30.2717 1013.86 27.5509 1016.38 24.8302C1018.9 22.1094 1021.03 20.166 1022.96 19H1120C1119.03 20.9434 1117.48 23.2755 1115.35 26.1906C1113.22 29.1057 1110.9 32.0208 1108.57 34.7415C1106.25 37.6566 1103.92 40.183 1101.6 42.1264C1099.28 44.2642 1097.73 45.2358 1096.76 45.2358H1073.9L1046.01 122H1008.83Z" fill="#F2EEFF"/>
        <path d="M893.676 19H1004.08C1003.11 20.9434 1001.56 23.2755 999.428 26.1906C997.298 29.1057 994.974 32.0208 992.649 34.7415C990.325 37.6566 988.001 40.183 985.677 42.1264C983.353 44.2642 981.803 45.2358 980.835 45.2358H921.18L910.14 75.7472L928.54 57.8679H973.281L945.584 84.1038H907.041L902.78 95.7642H976.961C976.767 96.1528 976.38 96.7358 975.992 97.5132C975.411 98.2906 974.83 99.2623 974.443 100.04C973.862 101.011 973.281 101.789 972.894 102.566C972.313 103.343 971.925 103.926 971.925 103.926C970.763 105.481 969.02 107.425 967.083 109.368C965.146 111.506 963.209 113.449 961.272 115.392C959.336 117.336 957.592 118.891 956.043 120.057C954.493 121.417 953.719 122 953.719 122H856.295L893.676 19Z" fill="#F2EEFF"/>
        <path d="M721.056 122L758.438 19H795.625L778.774 65.2528L842.884 19H884.333L816.737 71.666L854.505 122H813.057L775.094 75.7472L758.244 122H721.056Z" fill="#F2EEFF"/>
        <path d="M618.043 74.7755V74.3868C618.043 68.1679 619.399 61.7547 622.111 55.1472C624.822 48.5396 628.502 42.7094 633.151 37.2679C637.799 32.0208 643.029 27.7453 649.227 24.2472C655.231 20.7491 661.622 19 668.595 19H748.587C744.713 24.0528 741.033 28.717 737.16 32.9925C733.286 37.2679 729.218 41.3491 724.764 45.2358H674.406C672.081 45.2358 669.564 46.2075 667.239 47.7623C664.915 49.317 662.785 51.4547 660.848 53.9811C658.911 56.7019 657.168 59.617 656.006 62.7264C654.65 65.8359 654.069 68.9453 654.069 72.0547C653.875 79.4396 655.425 85.0755 658.911 89.3509C662.204 93.6264 667.433 95.7642 674.406 95.7642H720.696C717.597 100.234 714.305 104.704 710.625 109.368C706.751 114.032 702.49 118.113 697.648 122H682.153C674.018 122 666.271 121.417 658.717 119.862C650.97 118.502 644.191 115.975 638.187 112.477C631.989 108.979 627.147 104.121 623.467 97.9019C619.787 91.8774 618.043 84.1038 618.043 74.7755Z" fill="#F2EEFF"/>
        <path d="M478.549 122V121.806C478.549 121.417 479.518 119.862 481.261 117.53C483.004 115.198 485.135 112.672 487.459 109.757C489.783 107.036 492.301 104.315 494.819 101.594C497.337 98.8736 499.467 96.9302 501.404 95.7642H524.646L543.046 45.2358H506.44V45.0415C506.44 44.6528 507.408 43.0981 509.152 40.766C510.895 38.434 513.025 35.9076 515.35 32.9925C517.674 30.2717 520.192 27.5509 522.71 24.8302C525.227 22.1094 527.358 20.166 529.295 19H626.331C625.362 20.9434 623.813 23.2755 621.682 26.1906C619.552 29.1057 617.228 32.0208 614.903 34.7415C612.579 37.6566 610.255 40.183 607.931 42.1264C605.607 44.2642 604.057 45.2358 603.089 45.2358H580.234L561.834 95.7642H598.44C597.472 97.7076 595.922 100.04 593.792 102.955C591.661 105.87 589.337 108.785 587.013 111.506C584.689 114.421 582.364 116.947 580.04 118.891C577.716 121.028 576.167 122 575.198 122H478.549Z" fill="#F2EEFF"/>
        <path d="M410.109 45.4302L399.069 74.3868L418.05 58.4509H449.04C449.04 58.4509 449.427 58.2566 449.814 57.6736C450.202 57.0906 450.783 56.5076 451.364 55.7302C451.945 54.9528 452.526 54.3698 452.913 53.5924C453.301 52.8151 453.688 52.2321 453.882 51.8434L454.075 50.6774C454.075 49.5113 453.688 48.3453 453.301 47.1792C452.913 46.0132 451.751 45.4302 449.814 45.4302H410.109ZM345.225 122L382.606 19H469.377C474.025 19 477.705 19.9717 480.61 21.9151C483.322 23.8585 485.646 26.3849 487.196 29.3C488.745 32.4094 489.713 35.5189 490.295 39.017C490.682 42.5151 491.069 45.8189 491.069 48.734C491.069 55.3415 489.326 60.9774 486.227 65.4472C482.935 69.917 478.867 73.4151 474.025 76.1358C468.989 78.8566 463.566 80.9943 457.756 82.1604C451.751 83.3264 446.134 84.1038 440.711 84.1038L478.673 122H437.225L397.326 85.0755L395.195 86.6302L382.412 122H345.225Z" fill="#F2EEFF"/>
        <path d="M242.212 74.7755V74.3868C242.212 68.1679 243.567 61.7547 246.279 55.1472C248.991 48.5396 252.671 42.7094 257.319 37.2679C261.967 32.0208 267.197 27.7453 273.395 24.2472C279.399 20.7491 285.791 19 292.763 19H372.755C368.881 24.0528 365.201 28.717 361.328 32.9925C357.454 37.2679 353.387 41.3491 348.932 45.2358H298.574C296.25 45.2358 293.732 46.2075 291.408 47.7623C289.083 49.317 286.953 51.4547 285.016 53.9811C283.079 56.7019 281.336 59.617 280.174 62.7264C278.818 65.8359 278.237 68.9453 278.237 72.0547C278.043 79.4396 279.593 85.0755 283.079 89.3509C286.372 93.6264 291.601 95.7642 298.574 95.7642H344.865C341.766 100.234 338.473 104.704 334.793 109.368C330.919 114.032 326.658 118.113 321.816 122H306.321C298.187 122 290.439 121.417 282.885 119.862C275.138 118.502 268.359 115.975 262.355 112.477C256.157 108.979 251.315 104.121 247.635 97.9019C243.955 91.8774 242.212 84.1038 242.212 74.7755Z" fill="#F2EEFF"/>
        <path d="M209.609 84.1037H164.868L192.565 57.8678H237.306L209.609 84.1037Z" fill="#F2EEFF"/>
        <path d="M69.3812 19H179.782C178.813 20.9434 177.264 23.2755 175.133 26.1906C173.003 29.1057 170.678 32.0208 168.354 34.7415C166.03 37.6566 163.706 40.183 161.381 42.1264C159.057 44.2642 157.508 45.2358 156.539 45.2358H96.8844L85.8444 75.7472L104.244 57.8679H148.986L121.289 84.1038H82.7454L78.4844 95.7642H152.666C152.472 96.1528 152.085 96.7358 151.697 97.5132C151.116 98.2906 150.535 99.2623 150.148 100.04C149.567 101.011 148.986 101.789 148.598 102.566C148.017 103.343 147.63 103.926 147.63 103.926C146.468 105.481 144.725 107.425 142.788 109.368C140.851 111.506 138.914 113.449 136.977 115.392C135.04 117.336 133.297 118.891 131.748 120.057C130.198 121.417 129.423 122 129.423 122H32L69.3812 19Z" fill="#F2EEFF"/>
    </g>
    <defs>
        <filter id="filter0_dd_148_203" x="0" y="-13" width="1152" height="167" filterUnits="userSpaceOnUse" color-interpolation-filters="sRGB">
            <feFlood flood-opacity="0" result="BackgroundImageFix"/>
            <feColorMatrix in="SourceAlpha" type="matrix" values="0 0 0 0 0 0 0 0 0 0 0 0 0 0 0 0 0 0 127 0" result="hardAlpha"/>
            <feOffset/>
            <feGaussianBlur stdDeviation="16"/>
            <feComposite in2="hardAlpha" operator="out"/>
            <feColorMatrix type="matrix" values="0 0 0 0 0.456209 0 0 0 0 0.178271 0 0 0 0 1 0 0 0 1 0"/>
            <feBlend mode="normal" in2="BackgroundImageFix" result="effect1_dropShadow_148_203"/>
            <feColorMatrix in="SourceAlpha" type="matrix" values="0 0 0 0 0 0 0 0 0 0 0 0 0 0 0 0 0 0 127 0" result="hardAlpha"/>
            <feOffset/>
            <feGaussianBlur stdDeviation="8"/>
            <feComposite in2="hardAlpha" operator="out"/>
            <feColorMatrix type="matrix" values="0 0 0 0 0.411498 0 0 0 0 0.221788 0 0 0 0 0.768131 0 0 0 1 0"/>
            <feBlend mode="normal" in2="effect1_dropShadow_148_203" result="effect2_dropShadow_148_203"/>
            <feBlend mode="normal" in="SourceGraphic" in2="effect2_dropShadow_148_203" result="shape"/>
        </filter>
    </defs>
</svg>
